<svg width="21" height="21" viewBox="0 0 21 21" fill="none" xmlns="http://www.w3.org/2000/svg">
<path d="M17.6821 0L21 3.31789L18.4706 5.84833L15.1528 2.53044L17.6821 0ZM5.52979 15.4702H8.84767L16.9068 7.41105L13.5889 4.09316L5.52979 12.1523V15.4702Z" fill="#006D77"/>
<path d="M17.6954 18.7881H5.70455C5.6758 18.7881 5.64594 18.7991 5.61718 18.7991C5.58068 18.7991 5.54419 18.7892 5.50658 18.7881H2.21192V3.30461H9.78444L11.9964 1.09268H2.21192C0.992048 1.09268 0 2.08362 0 3.30461V18.7881C0 20.0091 0.992048 21 2.21192 21H17.6954C18.282 21 18.8446 20.767 19.2595 20.3521C19.6743 19.9373 19.9073 19.3747 19.9073 18.7881V9.20159L17.6954 11.4135V18.7881Z" fill="#006D77"/>
</svg>
